<svg width="70" height="72" viewBox="0 0 70 72" fill="none" xmlns="http://www.w3.org/2000/svg">
<g filter="url(#filter0_d_55_1940)">
<g filter="url(#filter1_d_55_1940)">
<circle cx="35" cy="33" r="31" fill="url(#paint0_radial_55_1940)"/>
</g>
<path d="M34.0523 32.6006L31.7915 37.1093L33.9006 40.2036" stroke="#476A56" stroke-linecap="round"/>
<circle cx="22.4014" cy="31.0924" r="2.46591" transform="rotate(14.5357 22.4014 31.0924)" fill="#476A56"/>
<circle cx="46.5659" cy="30.8465" r="2.46591" transform="rotate(14.5357 46.5659 30.8465)" fill="#476A56"/>
<path d="M39.3125 48.7096L30.3611 48.6315C29.5529 48.6245 29.1123 47.7285 29.6669 47.1405C30.1748 46.6021 30.7829 46.0488 31.3745 45.7354C32.7337 45.0153 33.6925 44.8033 35.2266 44.9145C37.0313 45.0454 38.0249 45.674 39.4827 46.7459C39.6428 46.8636 39.8107 47.0027 39.9786 47.1518C40.6209 47.7224 40.1716 48.7171 39.3125 48.7096Z" fill="#476A56"/>
</g>
<defs>
<filter id="filter0_d_55_1940" x="0" y="0" width="70" height="70" filterUnits="userSpaceOnUse" color-interpolation-filters="sRGB">
<feFlood flood-opacity="0" result="BackgroundImageFix"/>
<feColorMatrix in="SourceAlpha" type="matrix" values="0 0 0 0 0 0 0 0 0 0 0 0 0 0 0 0 0 0 127 0" result="hardAlpha"/>
<feOffset dy="2"/>
<feGaussianBlur stdDeviation="2"/>
<feComposite in2="hardAlpha" operator="out"/>
<feColorMatrix type="matrix" values="0 0 0 0 0.278431 0 0 0 0 0.415686 0 0 0 0 0.337255 0 0 0 0.25 0"/>
<feBlend mode="normal" in2="BackgroundImageFix" result="effect1_dropShadow_55_1940"/>
<feBlend mode="normal" in="SourceGraphic" in2="effect1_dropShadow_55_1940" result="shape"/>
</filter>
<filter id="filter1_d_55_1940" x="0" y="2" width="70" height="70" filterUnits="userSpaceOnUse" color-interpolation-filters="sRGB">
<feFlood flood-opacity="0" result="BackgroundImageFix"/>
<feColorMatrix in="SourceAlpha" type="matrix" values="0 0 0 0 0 0 0 0 0 0 0 0 0 0 0 0 0 0 127 0" result="hardAlpha"/>
<feOffset dy="4"/>
<feGaussianBlur stdDeviation="2"/>
<feComposite in2="hardAlpha" operator="out"/>
<feColorMatrix type="matrix" values="0 0 0 0 0.278151 0 0 0 0 0.415962 0 0 0 0 0.336616 0 0 0 0.25 0"/>
<feBlend mode="normal" in2="BackgroundImageFix" result="effect1_dropShadow_55_1940"/>
<feBlend mode="normal" in="SourceGraphic" in2="effect1_dropShadow_55_1940" result="shape"/>
</filter>
<radialGradient id="paint0_radial_55_1940" cx="0" cy="0" r="1" gradientUnits="userSpaceOnUse" gradientTransform="translate(47.8876 26.7303) rotate(153.283) scale(58.8817 73.4295)">
<stop stop-color="#E2F0D7"/>
<stop offset="1" stop-color="#93C38B"/>
</radialGradient>
</defs>
</svg>
